<svg xmlns="http://www.w3.org/2000/svg" fill="none" viewBox="130.2 44.7 140.1 140.1">
<g clip-path="url(#clip0_5196_28707)">

<g opacity="0.7">

</g>

<path fill="url(#paint2_linear_5196_28707)" d="M248.785 136.073C255.907 131.625 259.864 128.037 260.535 125.392C260.654 124.925 260.484 124.433 260.102 124.124C259.627 123.749 249.481 115.796 239.581 113.502C239.496 113.31 239.36 113.135 239.182 113.001L221.438 100.234L211.572 90.4131C210.978 89.8207 210.298 89.3367 209.551 88.9612L196.57 82.4694C195.474 81.9187 194.243 81.6267 193.012 81.6267H184.089L165.309 59.2976C164.562 58.4132 163.611 57.6872 162.549 57.2033L158.533 55.3676C157.795 55.0338 156.988 54.9253 156.182 55.0504L152.828 55.6012C152.013 55.7347 151.342 56.3355 151.122 57.1198L149.194 64.0872L146.724 68.593C145.951 69.9948 145.442 70.9378 145.425 72.8152C145.382 72.8987 145.357 72.9904 145.348 73.0989C144.932 78.9481 147.199 84.6807 147.301 84.9226C147.428 85.2397 147.742 85.4483 148.091 85.4483C148.116 85.4483 148.15 85.4483 148.175 85.4483C148.558 85.4149 148.863 85.1312 148.923 84.764L149.568 81.176L151.325 98.4068V102.462C151.325 102.537 151.3 102.604 151.257 102.662L147.403 108.103L146.63 108.712C145.764 105.867 145.696 102.996 145.696 102.946C145.696 102.679 145.56 102.437 145.348 102.287C145.136 102.137 144.856 102.087 144.601 102.162C140.373 103.447 140.067 111.224 140.05 113.101C140.05 113.11 140.05 113.126 140.042 113.135C140.033 113.176 140.016 113.218 140.008 113.26C140.008 113.26 140.008 113.276 140.008 113.285C140.008 113.318 140.008 113.343 140.008 113.376C140.008 113.418 140.008 113.46 140.008 113.502C140.008 113.552 140.016 113.593 140.025 113.644C140.025 113.669 140.025 113.693 140.033 113.719L142.011 122.129C142.054 122.33 142.156 122.513 142.292 122.664L153.193 134.904L154.985 139.978C153.295 140.854 152.132 142.606 152.132 144.608C152.132 146.269 152.93 147.754 154.161 148.714C151.69 153.429 150.026 161.331 149.644 163.258C149.61 163.392 149.585 163.525 149.568 163.65C149.491 164.309 149.967 164.91 150.638 165.01C151.308 165.11 151.937 164.668 152.064 164.017C152.081 163.917 152.106 163.808 152.123 163.7C152.454 162.582 154.331 160.529 156.691 158.393C154.407 165.302 155.732 172.712 155.8 173.104C155.902 173.663 156.377 174.08 156.946 174.122C157.515 174.155 158.049 173.813 158.228 173.28C160.282 167.255 163.008 161.664 164.502 160.204C165.725 162.157 168.416 167.196 167.907 172.778C167.856 173.287 168.136 173.771 168.594 173.997C169.061 174.23 169.613 174.155 170.004 173.813L174.351 169.975L175.506 173.629C175.667 174.138 176.134 174.489 176.677 174.497C176.991 174.497 177.305 174.506 177.62 174.506C186.042 174.506 192.894 171.668 197.249 169.199C198.225 170.225 199.601 170.868 201.137 170.868C202.08 170.868 202.963 170.626 203.727 170.2C205.484 172.078 207.327 173.563 207.683 173.846C208.082 174.164 208.643 174.214 209.084 173.964C210.85 173.004 213.117 170.359 214.484 168.632C215.01 169.942 215.503 171.819 215.757 173.113C215.834 173.505 216.097 173.839 216.471 174.006C216.844 174.172 217.269 174.155 217.625 173.955C219.663 172.795 221.14 170.142 222.015 168.114C222.584 169.474 222.949 170.985 223.085 171.677C223.161 172.102 223.458 172.453 223.866 172.611C224.273 172.771 224.732 172.703 225.08 172.445C228.637 169.825 230.352 164.81 231.091 161.873C233.757 165.069 235.709 170.876 236.313 173.188C236.456 173.738 236.958 174.122 237.535 174.122H237.569C238.155 174.105 238.656 173.688 238.766 173.12C239.038 171.752 241.576 160.112 242.476 156.007L248.233 158.201C248.649 158.36 249.133 158.293 249.481 158.01C249.829 157.734 250.007 157.284 249.931 156.849C249.413 153.704 248.53 151.301 247.757 149.657C257.802 151.417 260.34 146.119 260.45 145.877C260.688 145.351 260.526 144.726 260.059 144.383L248.776 136.056L248.785 136.073ZM155.817 149.607C155.817 149.607 155.808 149.607 155.8 149.607C155.8 149.607 155.808 149.607 155.817 149.607ZM154.713 149.106C154.713 149.106 154.67 149.081 154.645 149.065C154.67 149.081 154.687 149.09 154.713 149.106ZM155.256 149.39C155.256 149.39 155.205 149.365 155.171 149.348C155.197 149.365 155.222 149.373 155.256 149.39ZM204.712 169.525C204.712 169.525 204.771 169.474 204.797 169.449C204.771 169.474 204.737 169.499 204.712 169.525ZM204.236 169.909C204.236 169.909 204.296 169.867 204.321 169.841C204.296 169.867 204.262 169.884 204.236 169.909ZM205.187 169.049C205.187 169.049 205.204 169.033 205.213 169.023C205.213 169.033 205.195 169.04 205.187 169.049ZM196.858 168.74C196.858 168.74 196.858 168.74 196.858 168.731C196.858 168.731 196.858 168.731 196.858 168.74ZM155.511 139.761C155.511 139.761 155.587 139.736 155.621 139.719C155.587 139.736 155.545 139.744 155.511 139.761ZM156.071 139.577C156.122 139.56 156.173 139.552 156.216 139.544C156.165 139.552 156.114 139.569 156.071 139.577ZM156.683 139.452C156.734 139.452 156.776 139.436 156.827 139.427C156.776 139.427 156.734 139.444 156.683 139.452ZM185.745 144.291C185.745 144.291 185.745 144.242 185.753 144.216C185.753 144.242 185.753 144.267 185.745 144.291ZM233.409 138.709C233.409 138.709 233.4 138.634 233.392 138.601C233.392 138.634 233.4 138.676 233.409 138.709Z"></path>
<path fill="white" d="M228.137 142.155C229.69 142.155 230.948 140.919 230.948 139.394C230.948 137.868 229.69 136.632 228.137 136.632C226.585 136.632 225.327 137.868 225.327 139.394C225.327 140.919 226.585 142.155 228.137 142.155Z"></path>
<path fill="white" d="M259.313 125.926C259.237 125.926 259.16 125.918 259.084 125.893C258.855 125.834 236.33 119.71 221.965 119.935C221.498 119.935 221.107 119.576 221.107 119.109C221.107 118.642 221.472 118.266 221.948 118.266C236.576 118.049 259.313 124.224 259.542 124.283C259.992 124.408 260.256 124.867 260.136 125.309C260.035 125.676 259.695 125.918 259.321 125.918L259.313 125.926Z"></path>
<path fill="white" d="M196.019 167.038C191.927 169.341 185.465 172.036 177.654 172.044L176.194 167.404C176.067 167.004 175.736 166.687 175.328 166.578C174.912 166.47 174.47 166.578 174.148 166.854L170.463 170.1C170.022 163.374 166.159 158.143 165.972 157.892C165.717 157.55 165.301 157.367 164.86 157.392C162.423 157.575 159.859 162.323 157.898 167.038C157.949 163.157 158.687 158.043 161.633 154.305C162.024 153.812 161.981 153.119 161.531 152.677C161.081 152.235 160.377 152.185 159.876 152.56C158.959 153.245 155.996 155.506 153.483 157.993C154.281 155.064 155.308 151.893 156.437 149.773C155.588 149.606 154.816 149.248 154.162 148.739C151.691 153.453 150.027 161.355 149.645 163.283C149.611 163.416 149.586 163.55 149.569 163.675C149.492 164.334 149.968 164.935 150.638 165.035C151.309 165.135 151.937 164.693 152.065 164.042C152.082 163.942 152.107 163.833 152.124 163.725C152.455 162.607 154.332 160.554 156.692 158.418C154.408 165.327 155.733 172.736 155.8 173.129C155.902 173.688 156.378 174.105 156.947 174.147C157.516 174.181 158.05 173.839 158.229 173.304C160.283 167.279 163.009 161.689 164.503 160.229C165.726 162.181 168.417 167.221 167.908 172.804C167.857 173.313 168.137 173.797 168.595 174.021C169.062 174.256 169.614 174.181 170.005 173.839L174.352 169.999L175.506 173.655C175.668 174.164 176.135 174.514 176.678 174.522C176.992 174.522 177.306 174.53 177.62 174.53C186.042 174.53 192.895 171.694 197.25 169.224C196.672 168.615 196.24 167.872 196.002 167.038H196.019Z"></path>
<path fill="white" d="M248.785 136.073C255.908 131.625 259.865 128.037 260.536 125.392C260.654 124.925 260.485 124.433 260.103 124.124C259.628 123.749 249.482 115.796 239.582 113.502C239.497 113.31 239.361 113.135 239.183 113.001L221.439 100.234L211.573 90.4131C210.978 89.8207 210.299 89.3367 209.552 88.9612L196.571 82.4694C195.475 81.9187 194.245 81.6267 193.013 81.6267H184.09L165.318 59.2976C164.571 58.4132 163.62 57.6872 162.559 57.2033L158.535 55.3676C157.796 55.0338 156.989 54.9253 156.183 55.0504L152.829 55.6012C152.014 55.7347 151.343 56.3355 151.123 57.1198L149.195 64.0872L146.725 68.593C145.952 69.9948 145.443 70.9378 145.426 72.8152C145.383 72.8987 145.358 72.9904 145.349 73.0989C144.933 78.9481 147.2 84.6807 147.302 84.9226C147.429 85.2397 147.743 85.4483 148.092 85.4483C148.117 85.4483 148.151 85.4483 148.176 85.4483C148.559 85.4149 148.864 85.1312 148.924 84.764L149.569 81.176L151.326 98.4068V102.462C151.326 102.537 151.301 102.604 151.258 102.662L147.404 108.103L146.631 108.712C145.765 105.867 145.697 102.996 145.697 102.946C145.697 102.679 145.561 102.437 145.349 102.287C145.137 102.137 144.857 102.087 144.602 102.162C140.374 103.447 140.068 111.224 140.06 113.101C140.043 113.159 140.026 113.226 140.017 113.285C139.924 113.961 140.408 114.586 141.104 114.678L162.907 117.54C163.136 117.565 163.357 117.574 163.586 117.574C164.478 117.574 165.369 117.39 166.193 117.048L170.922 115.037C171.584 114.753 172.11 114.236 172.408 113.585L176.186 105.107C176.483 104.44 176.508 103.697 176.245 103.013C174.038 97.147 166.66 80.9341 161.472 75.6439C158.849 72.9654 151.233 72.0475 148.066 71.7722C148.202 71.1547 148.482 70.6457 148.958 69.7779L150.774 66.4569L155.147 67.4582C155.206 67.4666 155.257 67.4833 155.317 67.4833L159.511 67.8672C159.689 67.8837 159.859 67.8922 160.037 67.8922C161.532 67.8922 162.95 67.2998 163.994 66.2317L166.082 64.0955L182.52 83.6626C182.757 83.9464 183.114 84.1131 183.496 84.1131H193.013C193.845 84.1131 194.686 84.3135 195.424 84.6807L208.406 91.1724C208.915 91.4229 209.374 91.7566 209.781 92.1572L219.715 102.045C219.766 102.095 219.817 102.137 219.868 102.178L234.65 112.818C225.327 111.983 220.598 111.616 220.547 111.607C219.843 111.566 219.248 112.066 219.189 112.742C219.138 113.427 219.656 114.019 220.343 114.077C220.394 114.077 225.667 114.495 236.076 115.429C244.702 116.205 254.984 123.423 257.785 125.501C256.588 127.62 252.394 130.974 246.222 134.721C243.284 136.506 239.879 137.558 236.39 137.775L233.257 137.967C233.385 138.417 233.461 138.901 233.461 139.393C233.461 139.753 233.427 140.103 233.35 140.445L236.542 140.253C240.024 140.045 243.42 139.076 246.451 137.458L257.556 145.652C256.368 146.828 253.159 148.706 245.619 146.661C245.101 146.519 244.549 146.72 244.243 147.154C243.938 147.587 243.946 148.164 244.269 148.589C244.286 148.614 245.95 150.867 246.994 155.089L242.01 153.187C241.671 153.053 241.28 153.078 240.958 153.253C240.635 153.429 240.397 153.729 240.321 154.087C240.219 154.572 238.436 162.707 237.264 168.097C235.974 164.752 233.869 160.446 231.041 158.443C230.684 158.193 230.217 158.143 229.81 158.31C229.403 158.477 229.122 158.844 229.054 159.278C229.046 159.345 228.12 165.469 225.022 169.108C224.572 167.606 223.816 165.669 222.678 164.426C222.373 164.092 221.905 163.942 221.464 164.051C221.022 164.151 220.666 164.476 220.53 164.91C220.182 166.078 219.138 168.823 217.737 170.576C217.278 168.832 216.514 166.546 215.496 165.544C215.232 165.286 214.867 165.152 214.502 165.185C214.128 165.219 213.797 165.402 213.577 165.702C212.694 166.913 210.291 169.983 208.542 171.36C207.608 170.567 206.538 169.575 205.579 168.54C205.112 169.24 204.475 169.817 203.728 170.234C205.485 172.111 207.328 173.596 207.684 173.879C208.084 174.197 208.644 174.247 209.085 173.997C210.851 173.037 213.118 170.392 214.485 168.665C215.012 169.975 215.504 171.852 215.759 173.146C215.835 173.538 216.098 173.872 216.472 174.039C216.845 174.206 217.27 174.188 217.626 173.988C219.664 172.828 221.142 170.176 222.016 168.148C222.585 169.508 222.95 171.018 223.086 171.71C223.162 172.137 223.459 172.486 223.867 172.645C224.274 172.804 224.733 172.736 225.081 172.479C228.638 169.858 230.353 164.843 231.092 161.906C233.758 165.102 235.711 170.909 236.313 173.221C236.458 173.771 236.959 174.155 237.536 174.155H237.57C238.156 174.138 238.657 173.721 238.767 173.154C239.039 171.786 241.578 160.145 242.477 156.04L248.234 158.235C248.65 158.393 249.134 158.327 249.482 158.043C249.83 157.767 250.008 157.317 249.932 156.883C249.414 153.737 248.531 151.334 247.758 149.691C257.803 151.451 260.341 146.152 260.451 145.91C260.688 145.385 260.527 144.759 260.06 144.417L248.777 136.089L248.785 136.073ZM141.775 112.267C141.885 109.855 142.429 105.958 144.093 104.373C144.279 106.409 144.874 110.214 146.759 112.926L141.783 112.275L141.775 112.267ZM157.643 114.353C157.77 112.008 158.305 108.445 159.808 106.826C159.825 108.921 160.19 112.55 162.287 114.962L157.643 114.353ZM159.842 77.563C160.538 78.3057 161.285 79.2736 162.066 80.4084L159.392 87.0921C159.035 85.1229 158.917 82.0272 159.842 77.5713V77.563ZM158.314 91.3894C158.552 91.7064 158.925 91.8818 159.324 91.8818C159.384 91.8818 159.435 91.8818 159.494 91.8732C159.944 91.8149 160.334 91.5147 160.496 91.0973L163.731 83.0035C167.687 89.5119 172 98.8992 173.868 103.864C173.902 103.948 173.893 104.031 173.868 104.106L170.09 112.584C170.056 112.659 169.996 112.717 169.92 112.751L165.191 114.761C165.072 114.812 164.945 114.853 164.817 114.895C160.895 112.525 161.566 105.416 161.574 105.349C161.599 105.074 161.489 104.799 161.268 104.624C161.048 104.448 160.751 104.39 160.479 104.473C156.904 105.558 156.132 111.24 155.971 114.127L149.306 113.251C148.626 112.684 148.083 111.941 147.633 111.107L149.144 109.922C149.238 109.847 149.323 109.764 149.391 109.663L153.355 104.073C153.695 103.597 153.873 103.038 153.873 102.454V98.3986C153.873 98.2815 153.873 98.173 153.856 98.0812L151.471 74.6676C153.721 75.0181 156.004 75.5188 157.669 76.1862C157.584 76.3114 157.516 76.4532 157.482 76.6118C155.181 87.1004 158.203 91.2139 158.339 91.3894H158.314ZM148.949 74.3421C148.924 74.4673 148.907 74.5925 148.924 74.726L148.958 75.0765L147.879 81.0509C147.412 79.1735 146.962 76.6953 147.013 74.1753C147.616 74.2171 148.261 74.2754 148.949 74.3506V74.3421ZM164.401 62.2348L162.168 64.5211C161.54 65.1636 160.657 65.489 159.749 65.4056L155.639 65.0217L151.802 64.1456L153.491 58.0126L156.599 57.5037C156.896 57.4536 157.202 57.5037 157.473 57.6205L161.498 59.4562C162.219 59.7816 162.873 60.2822 163.374 60.883L164.478 62.1931C164.478 62.1931 164.427 62.2181 164.41 62.2431L164.401 62.2348Z"></path>
<path fill="white" d="M186.051 143.273L181.934 142.706C181.186 142.622 180.524 142.297 180.032 141.771C180.032 141.771 180.023 141.763 180.015 141.755L169.283 129.589C167.568 127.653 165.318 126.326 162.771 125.751L144.806 121.737L144.39 121.27L142.488 113.159C142.335 112.491 141.656 112.083 140.977 112.233C140.297 112.383 139.873 113.051 140.034 113.718L142.012 122.129C142.055 122.33 142.157 122.513 142.293 122.663L153.194 134.904L154.986 139.977C155.724 139.594 156.556 139.377 157.439 139.377L155.486 133.87C155.435 133.719 155.351 133.577 155.249 133.46L147.633 124.908L162.211 128.162C164.231 128.613 166.014 129.664 167.373 131.199L178.104 143.365C178.104 143.365 178.113 143.374 178.113 143.382C178.987 144.375 180.244 145 181.594 145.151L185.678 145.71C185.661 145.551 185.652 145.384 185.652 145.217C185.652 144.525 185.797 143.866 186.043 143.257L186.051 143.273Z"></path>
<path fill="white" d="M205.858 105.224C205.468 105.224 205.086 105.048 204.831 104.706L202.547 101.602L194.312 97.7891C193.089 97.2217 192.003 96.4457 191.086 95.4776L189.727 94.051C189.388 93.6919 189.294 93.1665 189.489 92.7075C189.693 92.2567 190.143 91.9646 190.644 91.9646H197.929C198.336 91.9646 198.71 92.1568 198.947 92.4824L204.381 99.875C204.381 99.875 204.398 99.9004 204.415 99.9166L206.878 103.263C207.285 103.822 207.158 104.59 206.597 104.99C206.376 105.149 206.113 105.224 205.858 105.224ZM193.624 94.443C194.159 94.8852 194.745 95.2524 195.382 95.5526L199.491 97.4554L197.275 94.443H193.616H193.624Z"></path>
<path fill="white" d="M205.069 138.809C204.823 138.809 204.577 138.701 204.407 138.5L193.242 124.858C192.945 124.499 193.005 123.973 193.37 123.681C193.735 123.398 194.27 123.448 194.567 123.806L205.731 137.449C206.028 137.808 205.969 138.334 205.604 138.626C205.451 138.751 205.256 138.809 205.069 138.809Z"></path>
<path fill="white" d="M217.058 133.811C216.811 133.811 216.565 133.702 216.395 133.502L205.231 119.86C204.933 119.501 204.993 118.975 205.358 118.683C205.723 118.399 206.258 118.449 206.555 118.808L217.72 132.451C218.017 132.81 217.957 133.335 217.592 133.627C217.439 133.752 217.244 133.811 217.058 133.811Z"></path>
<path fill="white" d="M217.058 144.133C216.811 144.133 216.565 144.024 216.395 143.824L205.231 130.181C204.933 129.823 204.993 129.297 205.358 129.005C205.723 128.721 206.258 128.771 206.555 129.13L217.72 142.773C218.017 143.132 217.957 143.657 217.592 143.949C217.439 144.074 217.244 144.133 217.058 144.133Z"></path>
<path fill="white" d="M222.644 159.711C222.398 159.711 222.152 159.602 221.982 159.402L210.817 145.759C210.52 145.401 210.58 144.875 210.945 144.583C211.31 144.299 211.845 144.349 212.142 144.708L223.306 158.351C223.604 158.71 223.544 159.235 223.179 159.527C223.026 159.652 222.831 159.711 222.644 159.711Z"></path>
<path fill="white" d="M228.137 144.625C225.2 144.625 222.806 142.272 222.806 139.385C222.806 136.498 225.2 134.145 228.137 134.145C231.075 134.145 233.469 136.498 233.469 139.385C233.469 142.272 231.075 144.625 228.137 144.625ZM228.137 136.632C226.593 136.632 225.328 137.866 225.328 139.393C225.328 140.92 226.584 142.155 228.137 142.155C229.691 142.155 230.948 140.92 230.948 139.393C230.948 137.866 229.691 136.632 228.137 136.632Z"></path>
<path fill="white" d="M157.465 149.865C154.527 149.865 152.133 147.512 152.133 144.625C152.133 141.738 154.527 139.385 157.465 139.385C160.402 139.385 162.797 141.738 162.797 144.625C162.797 147.512 160.402 149.865 157.465 149.865ZM157.465 141.871C155.919 141.871 154.654 143.106 154.654 144.633C154.654 146.16 155.911 147.395 157.465 147.395C159.018 147.395 160.275 146.16 160.275 144.633C160.275 143.106 159.018 141.871 157.465 141.871Z"></path>
<path fill="white" d="M201.147 170.885C198.209 170.885 195.814 168.531 195.814 165.644C195.814 162.757 198.209 160.404 201.147 160.404C204.084 160.404 206.478 162.757 206.478 165.644C206.478 168.531 204.084 170.885 201.147 170.885ZM201.147 162.89C199.601 162.89 198.336 164.125 198.336 165.652C198.336 167.179 199.593 168.415 201.147 168.415C202.7 168.415 203.957 167.179 203.957 165.652C203.957 164.125 202.7 162.89 201.147 162.89Z"></path>
<path fill="white" d="M190.984 150.475C193.929 150.475 196.316 148.128 196.316 145.234C196.316 142.34 193.929 139.994 190.984 139.994C188.039 139.994 185.652 142.34 185.652 145.234C185.652 148.128 188.039 150.475 190.984 150.475Z"></path>
</g>
<defs>
<linearGradient gradientUnits="userSpaceOnUse" y2="205.727" x2="144.688" y1="205.727" x1="600.983" id="paint0_linear_5196_28707">
<stop stop-color="#FB203B"></stop>
<stop stop-opacity="0" stop-color="#FB203B" offset="1"></stop>
</linearGradient>
<linearGradient gradientUnits="userSpaceOnUse" y2="-23.4394" x2="101.646" y1="-23.4394" x1="-354.65" id="paint1_linear_5196_28707">
<stop stop-color="#FB203B"></stop>
<stop stop-opacity="0" stop-color="#FB203B" offset="1"></stop>
</linearGradient>
<linearGradient gradientUnits="userSpaceOnUse" y2="182.327" x2="201.812" y1="70.1702" x1="199.023" id="paint2_linear_5196_28707">
<stop stop-color="#FB203B"></stop>
<stop stop-opacity="0.1" stop-color="#FB203B" offset="1"></stop>
</linearGradient>
<clipPath id="clip0_5196_28707">
<rect fill="white" height="229" width="400"></rect>
</clipPath>
</defs>
</svg>
