<svg xmlns="http://www.w3.org/2000/svg" fill="none" viewBox="121.5 35.2 157 157">
<g clip-path="url(#clip0_1963_21596)">
<mask height="228" width="400" y="0" x="0" maskUnits="userSpaceOnUse" style="mask-type:luminance" id="mask0_1963_21596">
<path fill="white" d="M400 0H0V227.708H400V0Z"></path>
</mask>
<g mask="url(#mask0_1963_21596)">

<g opacity="0.7">

</g>

<path fill="url(#paint2_linear_1963_21596)" d="M262.623 75.4195L261.433 52.5305C261.406 52.0362 261.127 51.5918 260.694 51.3528C260.261 51.1139 259.733 51.1195 259.306 51.3639L228.494 68.8028C228.094 68.3305 227.611 67.9139 227.044 67.5862C224.383 66.0528 220.973 66.9639 219.44 69.6251C218.973 70.4362 218.733 71.3195 218.7 72.2028L209.39 73.3918H195.361L181.144 71.5751L150.278 54.1028C150.422 52.9418 150.211 51.7251 149.583 50.6305C148.05 47.9695 144.633 47.0585 141.978 48.5918C139.317 50.1251 138.4 53.5418 139.939 56.1972C140.644 57.4195 141.75 58.2585 142.989 58.6751L142.35 70.9751C140.794 71.2585 139.372 72.1918 138.522 73.6639C136.989 76.3251 137.9 79.7362 140.561 81.2695C141.433 81.7751 142.395 82.0139 143.333 82.0139C143.922 82.0139 144.506 81.9085 145.061 81.7305C145.022 81.7418 144.983 81.7585 144.939 81.7751L155.772 104.647L150.406 127.958C150.372 128.108 150.367 128.258 150.383 128.408C150.356 128.481 150.328 128.553 150.306 128.636L149.272 133.164C149.139 133.742 149.378 134.342 149.872 134.67L177.028 152.77L190.083 178.953C190.328 179.436 190.822 179.742 191.361 179.742H201.922C202.078 179.742 202.228 179.708 202.367 179.664C202.506 179.708 202.656 179.742 202.811 179.742H213.373C213.911 179.742 214.411 179.436 214.65 178.953L227.706 152.77L254.861 134.67C255.356 134.342 255.594 133.742 255.461 133.164L254.427 128.636C254.411 128.558 254.383 128.481 254.35 128.408C254.361 128.264 254.361 128.114 254.327 127.964L250.056 109.403C250.956 108.931 251.74 108.214 252.277 107.275C253.023 105.986 253.223 104.486 252.833 103.047C252.533 101.936 251.911 100.964 251.05 100.236L262.483 76.1028C262.583 75.8862 262.633 75.6528 262.617 75.4139L262.623 75.4195ZM146.128 81.2751C146.128 81.2751 146.111 81.2805 146.106 81.2862C146.139 81.2639 146.172 81.2418 146.206 81.2195C146.178 81.2362 146.156 81.2585 146.128 81.2751Z"></path>
<path fill="white" d="M224.25 77.9751C223.306 77.9751 222.35 77.7362 221.477 77.2308C218.817 75.6974 217.906 72.2806 219.44 69.6251C220.973 66.9639 224.383 66.0528 227.044 67.5862C229.706 69.1195 230.617 72.5362 229.083 75.1918C228.056 76.9751 226.177 77.9751 224.25 77.9751ZM224.267 69.6974C223.327 69.6974 222.417 70.1862 221.91 71.0528C221.16 72.3474 221.61 74.0085 222.906 74.7585C224.2 75.5028 225.86 75.0585 226.61 73.7641C227.356 72.4695 226.91 70.8085 225.617 70.0585C225.19 69.8141 224.723 69.6974 224.267 69.6974Z"></path>
<path fill="white" d="M143.333 82.025C142.389 82.025 141.433 81.786 140.561 81.2806C137.9 79.7417 136.989 76.3306 138.522 73.6694C140.055 71.0083 143.467 70.0973 146.128 71.6306C148.789 73.1639 149.7 76.5806 148.167 79.236C147.139 81.0194 145.261 82.0194 143.333 82.0194V82.025ZM143.35 73.7473C142.411 73.7473 141.5 74.236 140.994 75.1027C140.244 76.3973 140.694 78.0583 141.989 78.8083C143.283 79.5527 144.944 79.1083 145.694 77.8139C146.439 76.5194 145.994 74.8583 144.7 74.1083C144.272 73.8639 143.805 73.7473 143.35 73.7473Z"></path>
<path fill="white" d="M247.45 110.058C246.506 110.058 245.55 109.819 244.677 109.314C243.39 108.569 242.467 107.369 242.083 105.931C241.7 104.492 241.894 102.992 242.64 101.703C244.173 99.0418 247.584 98.1307 250.244 99.6641C251.534 100.408 252.456 101.608 252.84 103.047C253.223 104.486 253.027 105.986 252.283 107.275C251.256 109.058 249.377 110.058 247.45 110.058ZM247.467 101.781C246.527 101.781 245.617 102.269 245.111 103.136C244.75 103.764 244.65 104.492 244.84 105.192C245.027 105.892 245.473 106.475 246.1 106.836C247.394 107.581 249.056 107.142 249.806 105.842C250.167 105.214 250.267 104.481 250.077 103.781C249.89 103.081 249.444 102.497 248.817 102.136C248.39 101.892 247.923 101.775 247.467 101.775V101.781Z"></path>
<path fill="white" d="M218.7 72.1974L209.39 73.3861H195.361L181.145 71.5694L150.278 54.1028C150.156 55.0638 149.795 55.9917 149.2 56.7751L179.972 74.1974C180.134 74.2861 180.311 74.3474 180.495 74.3694L195.078 76.2361C195.139 76.2417 195.2 76.2474 195.261 76.2474H209.473C209.534 76.2474 209.594 76.2474 209.656 76.2361L219.334 74.9974C218.884 74.1361 218.661 73.1751 218.694 72.1974H218.7Z"></path>
<path fill="white" d="M149.583 50.6305C148.05 47.9695 144.633 47.0585 141.978 48.5918C139.316 50.1251 138.4 53.5418 139.939 56.1972C140.966 57.9805 142.844 58.9808 144.772 58.9808C145.717 58.9808 146.672 58.7418 147.544 58.2362C150.205 56.7028 151.116 53.2862 149.583 50.6305Z"></path>
<path fill="white" d="M145.2 71.2084L145.839 58.864C145.483 58.9361 145.128 58.9807 144.772 58.9807C144.161 58.9807 143.561 58.8694 142.989 58.675L142.35 70.9807C143.311 70.8084 144.294 70.8917 145.2 71.2084Z"></path>
<path fill="white" d="M240.667 81.5806C238.006 80.0472 234.594 80.9583 233.06 83.6193C231.527 86.2806 232.44 89.6916 235.1 91.2249C235.973 91.7306 236.933 91.9693 237.873 91.9693C239.8 91.9693 241.673 90.9693 242.706 89.186C244.24 86.5249 243.327 83.1139 240.667 81.5806Z"></path>
<path fill="white" d="M245.156 99.4306L240.461 91.3306C239.877 91.636 239.256 91.8416 238.606 91.9249L243.577 100.508C244.044 100.053 244.577 99.6916 245.156 99.4306Z"></path>
<path fill="white" d="M261.433 52.5305C261.406 52.0361 261.127 51.5917 260.694 51.3528C260.261 51.1138 259.733 51.1195 259.306 51.3638L228.494 68.8028C229.127 69.5472 229.55 70.4417 229.727 71.3861L257.723 55.5417L239.75 81.164C240.067 81.2751 240.373 81.414 240.673 81.5861C240.94 81.7417 241.183 81.9194 241.417 82.1084L258.827 57.2917L259.756 75.214L248.477 99.0251C249.083 99.1361 249.683 99.3474 250.25 99.6694C250.54 99.8361 250.806 100.036 251.056 100.247L262.49 76.1084C262.59 75.8917 262.64 75.6584 262.623 75.4195L261.433 52.5305Z"></path>
<path fill="white" d="M255.467 133.17L254.434 128.642C254.417 128.564 254.39 128.486 254.356 128.414C254.367 128.27 254.367 128.119 254.334 127.969L250.061 109.408C249.256 109.831 248.361 110.058 247.456 110.058C247.394 110.058 247.34 110.047 247.277 110.047L251.55 128.608C251.567 128.686 251.594 128.758 251.627 128.831C251.617 128.975 251.617 129.125 251.65 129.275L252.467 132.842L225.817 150.608C225.611 150.747 225.444 150.936 225.327 151.158L212.494 176.892H202.817C202.661 176.892 202.511 176.925 202.372 176.97C202.234 176.925 202.084 176.892 201.928 176.892H192.25L179.417 151.158C179.306 150.936 179.139 150.747 178.928 150.608L152.278 132.842L153.095 129.275C153.134 129.114 153.134 128.947 153.117 128.792C153.139 128.731 153.178 128.675 153.195 128.608L158.678 104.814C158.678 104.814 158.678 104.786 158.678 104.77L168.711 87.4474C168.895 87.1251 168.878 86.7251 168.667 86.4251L148.445 57.5918C148.172 57.8308 147.872 58.0474 147.545 58.2362C147.306 58.3751 147.061 58.4862 146.817 58.5862L166.761 87.0195L157.861 102.381L147.384 80.2585C147.017 80.6474 146.606 81.0028 146.134 81.2808C145.75 81.5028 145.356 81.6641 144.95 81.7862L155.784 104.658L150.417 127.969C150.384 128.119 150.378 128.27 150.395 128.42C150.367 128.492 150.339 128.564 150.317 128.647L149.284 133.175C149.15 133.753 149.389 134.353 149.884 134.681L177.039 152.781L190.095 178.964C190.339 179.447 190.834 179.753 191.372 179.753H201.934C202.089 179.753 202.239 179.72 202.378 179.675C202.517 179.72 202.667 179.753 202.822 179.753H213.384C213.923 179.753 214.423 179.447 214.661 178.964L227.717 152.781L254.873 134.681C255.367 134.353 255.606 133.753 255.473 133.175L255.467 133.17Z"></path>
<path fill="white" d="M175.856 132.453C176.083 132.886 176.517 133.169 177 133.214L189.622 134.281L188.056 149.303L176.783 139.386C176.672 139.286 176.539 139.219 176.394 139.181L152.467 132.975L157.294 136.197L175.694 140.969L192.583 155.831V163.619C192.583 164.058 192.789 164.475 193.133 164.747L201.272 171.075C201.533 171.275 201.839 171.375 202.15 171.375C202.222 171.375 202.294 171.364 202.361 171.353C202.433 171.364 202.5 171.375 202.572 171.375C202.878 171.375 203.189 171.275 203.45 171.075L211.59 164.747C211.94 164.475 212.14 164.058 212.14 163.619V155.831L229.027 140.969L247.427 136.197L252.256 132.975L228.327 139.181C228.183 139.219 228.05 139.286 227.94 139.386L216.667 149.303L215.106 134.281L227.727 133.214C228.217 133.169 228.644 132.886 228.873 132.453L234.217 122.281C234.461 121.819 234.427 121.264 234.144 120.831C233.856 120.397 233.373 120.153 232.84 120.197L220.377 121.214C220.04 121.242 219.723 121.386 219.483 121.625L213.211 127.897C213.094 128.014 213.011 128.147 212.94 128.292C212.744 128.486 212.623 128.758 212.656 129.053L214.923 150.842L210.877 154.403C210.823 154.397 210.773 154.386 210.717 154.386H202.689C202.578 154.386 202.467 154.403 202.367 154.425C202.261 154.403 202.156 154.386 202.044 154.386H194.017C193.961 154.386 193.906 154.397 193.856 154.403L189.811 150.847L192.089 129.008C192.122 128.686 191.978 128.397 191.75 128.197C191.689 128.092 191.617 127.986 191.528 127.897L185.256 121.625C185.017 121.386 184.7 121.242 184.361 121.214L171.9 120.197C171.367 120.158 170.878 120.397 170.595 120.831C170.306 121.264 170.278 121.819 170.522 122.281L175.861 132.453H175.856ZM221.14 124.014L230.494 123.247L226.723 130.431L215.867 131.347L215.706 129.447L221.14 124.014ZM195.45 157.242H202.05C202.161 157.242 202.272 157.225 202.372 157.203C202.478 157.225 202.583 157.242 202.694 157.242H209.294V162.914L202.372 168.297L195.45 162.914V157.242ZM183.606 124.014L189.039 129.447L188.878 131.347L178.022 130.431L174.25 123.247L183.6 124.014H183.606Z"></path>
</g>
</g>
<defs>
<linearGradient gradientUnits="userSpaceOnUse" y2="205.311" x2="144.854" y1="205.311" x1="601.15" id="paint0_linear_1963_21596">
<stop stop-color="#00B775"></stop>
<stop stop-opacity="0" stop-color="#00B775" offset="1"></stop>
</linearGradient>
<linearGradient gradientUnits="userSpaceOnUse" y2="-23.856" x2="101.812" y1="-23.856" x1="-354.483" id="paint1_linear_1963_21596">
<stop stop-color="#00B775"></stop>
<stop stop-opacity="0" stop-color="#00B775" offset="1"></stop>
</linearGradient>
<linearGradient gradientUnits="userSpaceOnUse" y2="172.308" x2="200.202" y1="64.3043" x1="200.202" id="paint2_linear_1963_21596">
<stop stop-color="#00B775"></stop>
<stop stop-opacity="0" stop-color="#00B775" offset="1"></stop>
</linearGradient>
<clipPath id="clip0_1963_21596">
<rect fill="white" height="227.708" width="400"></rect>
</clipPath>
</defs>
</svg>
