<svg xmlns="http://www.w3.org/2000/svg" fill="none" viewBox="121.5 35.9 158 158">
<g clip-path="url(#clip0_1955_17326)">
<mask height="229" width="400" y="0" x="0" maskUnits="userSpaceOnUse" style="mask-type:luminance" id="mask0_1955_17326">
<path fill="white" d="M400 0.708008H0V228.416H400V0.708008Z"></path>
</mask>
<g mask="url(#mask0_1955_17326)">

<g opacity="0.7">

</g>

<path fill="url(#paint2_linear_1955_17326)" d="M248.134 168.395C251.352 167.564 253.29 164.28 252.459 161.059C251.627 157.839 248.344 155.902 245.123 156.733C241.902 157.564 239.965 160.849 240.796 164.069C241.627 167.289 244.913 169.227 248.134 168.395Z"></path>
<path fill="url(#paint3_linear_1955_17326)" d="M245.993 71.7993C242.673 71.7993 239.973 69.0993 239.973 65.777C239.973 62.4549 242.673 59.7549 245.993 59.7549C249.316 59.7549 252.016 62.4549 252.016 65.777C252.016 69.0993 249.316 71.7993 245.993 71.7993Z"></path>
<path fill="url(#paint4_linear_1955_17326)" d="M154.649 71.8442C157.975 71.8442 160.671 69.1479 160.671 65.8221C160.671 62.4961 157.975 59.7998 154.649 59.7998C151.323 59.7998 148.627 62.4961 148.627 65.8221C148.627 69.1479 151.323 71.8442 154.649 71.8442Z"></path>
<path fill="url(#paint5_linear_1955_17326)" d="M153.8 169.183C150.477 169.183 147.777 166.483 147.777 163.16C147.777 159.838 150.477 157.138 153.8 157.138C157.122 157.138 159.822 159.838 159.822 163.16C159.822 166.483 157.122 169.183 153.8 169.183Z"></path>
<path fill="url(#paint6_linear_1955_17326)" d="M247.556 134.882L229.793 117.121C229.526 116.855 229.16 116.705 228.783 116.705H212.356C212.789 115.566 213.06 114.366 213.16 113.127H228.156C228.533 113.127 228.899 112.977 229.166 112.71L246.926 94.9491C247.193 94.6824 247.343 94.3157 247.343 93.938V71.8324C247.343 71.7657 247.333 71.7047 247.326 71.6435C246.893 71.7435 246.449 71.7991 245.989 71.7991C245.476 71.7991 244.983 71.7268 244.51 71.6101C244.499 71.6824 244.489 71.7601 244.489 71.838V93.3491L227.56 110.277H213.056C212.976 109.716 212.866 109.171 212.716 108.638L228.766 92.588C229.033 92.3214 229.183 91.9547 229.183 91.5768V65.4157C229.183 65.038 229.033 64.6714 228.766 64.4047L212.789 48.4157C212.233 47.8601 211.326 47.8601 210.766 48.4157C210.21 48.9714 210.21 49.8768 210.766 50.438L226.333 66.0047V90.9768L211.549 105.76C210.333 103.593 208.522 101.805 206.333 100.632L207.783 98.3047C207.994 97.9714 207.972 97.538 207.733 97.2268L204.577 93.0657C204.261 92.6491 203.661 92.5657 203.244 92.8824C202.827 93.1991 202.744 93.7991 203.061 94.2157L205.822 97.8547L204.566 99.8601C203.2 99.3714 201.738 99.0934 200.205 99.0934C198.672 99.0934 197.299 99.3547 195.972 99.8157L194.722 97.8491L197.477 94.2157C197.794 93.7991 197.716 93.1991 197.294 92.8824C196.877 92.5657 196.277 92.6491 195.961 93.0657L192.805 97.2268C192.566 97.5434 192.544 97.9768 192.761 98.3157L194.2 100.577C191.983 101.738 190.15 103.516 188.911 105.688L174.205 90.9768V66.0047L189.772 50.438C190.327 49.8824 190.327 48.9768 189.772 48.4157C189.216 47.8601 188.311 47.8601 187.75 48.4157L171.766 64.3991C171.5 64.6657 171.35 65.0324 171.35 65.4101V91.5657C171.35 91.9434 171.5 92.3101 171.766 92.5768L187.716 108.532C187.555 109.099 187.433 109.677 187.35 110.271H172.972L156.044 93.3435V71.8324C156.044 71.7768 156.033 71.7268 156.027 71.6768C155.583 71.7824 155.122 71.8435 154.644 71.8435C154.166 71.8435 153.666 71.7768 153.205 71.6601C153.2 71.7157 153.188 71.7714 153.188 71.8324V93.938C153.188 94.3157 153.338 94.6824 153.605 94.9491L171.366 112.71C171.633 112.977 172 113.127 172.377 113.127H187.25C187.344 114.36 187.616 115.56 188.055 116.705H171.75C171.372 116.705 171.005 116.855 170.738 117.121L152.977 134.882C152.711 135.149 152.561 135.516 152.561 135.893V157.271C152.961 157.188 153.372 157.143 153.8 157.143C154.361 157.143 154.905 157.227 155.422 157.371V136.488L172.35 119.566H188.105C185.933 121.221 184.149 123.288 182.827 125.621C182.783 125.655 182.733 125.671 182.694 125.71L171.15 137.255C170.883 137.521 170.733 137.888 170.733 138.266V164.421C170.733 164.799 170.883 165.166 171.15 165.432L187.133 181.416C187.411 181.693 187.777 181.832 188.144 181.832C188.511 181.832 188.877 181.693 189.155 181.416C189.711 180.86 189.711 179.955 189.155 179.393L173.588 163.827V138.855L180.538 131.905C180.322 133.077 180.211 134.271 180.211 135.488C180.211 146.521 189.183 155.493 200.216 155.493C211.249 155.493 220.222 146.521 220.222 135.488C220.222 134.221 220.099 132.977 219.866 131.755L226.966 138.855V163.827L211.399 179.393C210.843 179.949 210.843 180.855 211.399 181.416C211.676 181.693 212.043 181.832 212.41 181.832C212.776 181.832 213.143 181.693 213.422 181.416L229.406 165.432C229.672 165.166 229.822 164.799 229.822 164.421V138.266C229.822 137.888 229.672 137.521 229.406 137.255L217.86 125.71C217.76 125.61 217.643 125.549 217.526 125.488C216.21 123.21 214.456 121.188 212.326 119.566H228.206L245.133 136.488V156.732C245.616 156.605 246.122 156.532 246.649 156.532C247.11 156.532 247.56 156.588 247.993 156.688V135.893C247.993 135.516 247.843 135.149 247.576 134.882H247.556Z"></path>
<path fill="white" d="M200.961 140.044L204.005 136.11C204.228 135.822 204.267 135.433 204.105 135.11C203.944 134.783 203.617 134.577 203.25 134.577H197.161C196.8 134.577 196.467 134.783 196.305 135.11C196.144 135.438 196.183 135.827 196.405 136.11L199.45 140.044L196.405 143.977C196.183 144.266 196.144 144.655 196.305 144.977C196.467 145.305 196.794 145.51 197.161 145.51H203.25C203.611 145.51 203.944 145.305 204.105 144.977C204.267 144.649 204.228 144.26 204.005 143.977L200.961 140.044ZM201.311 136.483L200.205 137.91L199.1 136.483H201.311ZM199.1 143.61L200.205 142.183L201.311 143.61H199.1Z"></path>
<path fill="white" d="M248.134 168.395C251.352 167.564 253.29 164.28 252.459 161.059C251.627 157.839 248.344 155.902 245.123 156.733C241.902 157.564 239.965 160.849 240.796 164.069C241.627 167.289 244.913 169.227 248.134 168.395Z"></path>
<path fill="white" d="M245.993 71.7993C242.673 71.7993 239.973 69.0993 239.973 65.777C239.973 62.4549 242.673 59.7549 245.993 59.7549C249.316 59.7549 252.016 62.4549 252.016 65.777C252.016 69.0993 249.316 71.7993 245.993 71.7993ZM245.993 62.6103C244.25 62.6103 242.827 64.0326 242.827 65.777C242.827 67.5216 244.25 68.9436 245.993 68.9436C247.739 68.9436 249.16 67.5216 249.16 65.777C249.16 64.0326 247.739 62.6103 245.993 62.6103Z"></path>
<path fill="white" d="M154.649 71.8442C157.975 71.8442 160.671 69.1479 160.671 65.8221C160.671 62.4961 157.975 59.7998 154.649 59.7998C151.323 59.7998 148.627 62.4961 148.627 65.8221C148.627 69.1479 151.323 71.8442 154.649 71.8442Z"></path>
<path fill="white" d="M153.8 169.183C150.477 169.183 147.777 166.483 147.777 163.16C147.777 159.838 150.477 157.138 153.8 157.138C157.122 157.138 159.822 159.838 159.822 163.16C159.822 166.483 157.122 169.183 153.8 169.183ZM153.8 159.994C152.055 159.994 150.633 161.416 150.633 163.16C150.633 164.905 152.055 166.327 153.8 166.327C155.544 166.327 156.966 164.905 156.966 163.16C156.966 161.416 155.544 159.994 153.8 159.994Z"></path>
<path fill="white" d="M247.556 134.882L229.793 117.121C229.526 116.855 229.16 116.705 228.783 116.705H212.356C212.789 115.566 213.06 114.366 213.16 113.127H228.156C228.533 113.127 228.899 112.977 229.166 112.71L246.926 94.9491C247.193 94.6824 247.343 94.3157 247.343 93.938V71.8324C247.343 71.7657 247.333 71.7047 247.326 71.6435C246.893 71.7435 246.449 71.7991 245.989 71.7991C245.476 71.7991 244.983 71.7268 244.51 71.6101C244.499 71.6824 244.489 71.7601 244.489 71.838V93.3491L227.56 110.277H213.056C212.976 109.716 212.866 109.171 212.716 108.638L228.766 92.588C229.033 92.3214 229.183 91.9547 229.183 91.5768V65.4157C229.183 65.038 229.033 64.6714 228.766 64.4047L212.789 48.4157C212.233 47.8601 211.326 47.8601 210.766 48.4157C210.21 48.9714 210.21 49.8768 210.766 50.438L226.333 66.0047V90.9768L211.549 105.76C210.333 103.593 208.522 101.805 206.333 100.632L207.783 98.3047C207.994 97.9714 207.972 97.538 207.733 97.2268L204.577 93.0657C204.261 92.6491 203.661 92.5657 203.244 92.8824C202.827 93.1991 202.744 93.7991 203.061 94.2157L205.822 97.8547L204.566 99.8601C203.2 99.3714 201.738 99.0934 200.205 99.0934C198.672 99.0934 197.299 99.3547 195.972 99.8157L194.722 97.8491L197.477 94.2157C197.794 93.7991 197.716 93.1991 197.294 92.8824C196.877 92.5657 196.277 92.6491 195.961 93.0657L192.805 97.2268C192.566 97.5434 192.544 97.9768 192.761 98.3157L194.2 100.577C191.983 101.738 190.15 103.516 188.911 105.688L174.205 90.9768V66.0047L189.772 50.438C190.327 49.8824 190.327 48.9768 189.772 48.4157C189.216 47.8601 188.311 47.8601 187.75 48.4157L171.766 64.3991C171.5 64.6657 171.35 65.0324 171.35 65.4101V91.5657C171.35 91.9434 171.5 92.3101 171.766 92.5768L187.716 108.532C187.555 109.099 187.433 109.677 187.35 110.271H172.972L156.044 93.3435V71.8324C156.044 71.7768 156.033 71.7268 156.027 71.6768C155.583 71.7824 155.122 71.8435 154.644 71.8435C154.166 71.8435 153.666 71.7768 153.205 71.6601C153.2 71.7157 153.188 71.7714 153.188 71.8324V93.938C153.188 94.3157 153.338 94.6824 153.605 94.9491L171.366 112.71C171.633 112.977 172 113.127 172.377 113.127H187.25C187.344 114.36 187.616 115.56 188.055 116.705H171.75C171.372 116.705 171.005 116.855 170.738 117.121L152.977 134.882C152.711 135.149 152.561 135.516 152.561 135.893V157.271C152.961 157.188 153.372 157.143 153.8 157.143C154.361 157.143 154.905 157.227 155.422 157.371V136.488L172.35 119.566H188.105C185.933 121.221 184.149 123.288 182.827 125.621C182.783 125.655 182.733 125.671 182.694 125.71L171.15 137.255C170.883 137.521 170.733 137.888 170.733 138.266V164.421C170.733 164.799 170.883 165.166 171.15 165.432L187.133 181.416C187.411 181.693 187.777 181.832 188.144 181.832C188.511 181.832 188.877 181.693 189.155 181.416C189.711 180.86 189.711 179.955 189.155 179.393L173.588 163.827V138.855L180.538 131.905C180.322 133.077 180.211 134.271 180.211 135.488C180.211 146.521 189.183 155.493 200.216 155.493C211.249 155.493 220.222 146.521 220.222 135.488C220.222 134.221 220.099 132.977 219.866 131.755L226.966 138.855V163.827L211.399 179.393C210.843 179.949 210.843 180.855 211.399 181.416C211.676 181.693 212.043 181.832 212.41 181.832C212.776 181.832 213.143 181.693 213.422 181.416L229.406 165.432C229.672 165.166 229.822 164.799 229.822 164.421V138.266C229.822 137.888 229.672 137.521 229.406 137.255L217.86 125.71C217.76 125.61 217.643 125.549 217.526 125.488C216.21 123.21 214.456 121.188 212.326 119.566H228.206L245.133 136.488V156.732C245.616 156.605 246.122 156.532 246.649 156.532C247.11 156.532 247.56 156.588 247.993 156.688V135.893C247.993 135.516 247.843 135.149 247.576 134.882H247.556ZM217.356 135.482C217.356 144.938 209.66 152.632 200.205 152.632C190.75 152.632 183.055 144.938 183.055 135.482C183.055 129.282 186.422 123.549 191.838 120.516C192.205 120.31 192.461 119.955 192.544 119.549C192.627 119.138 192.522 118.716 192.261 118.382C190.833 116.577 190.077 114.416 190.066 112.127C190.111 111.993 190.138 111.849 190.138 111.699C190.138 111.588 190.122 111.488 190.1 111.382C190.466 106.121 194.855 101.949 200.205 101.949C205.555 101.949 210.343 106.499 210.343 112.093C210.343 114.393 209.583 116.571 208.149 118.382C207.888 118.71 207.788 119.138 207.866 119.549C207.95 119.96 208.205 120.316 208.572 120.516C213.989 123.549 217.356 129.288 217.356 135.482Z"></path>
</g>
</g>
<defs>
<linearGradient gradientUnits="userSpaceOnUse" y2="206.019" x2="144.854" y1="206.019" x1="601.149" id="paint0_linear_1955_17326">
<stop stop-color="#07C7C2"></stop>
<stop stop-opacity="0" stop-color="#07C7C2" offset="1"></stop>
</linearGradient>
<linearGradient gradientUnits="userSpaceOnUse" y2="-23.1484" x2="101.812" y1="-23.1484" x1="-354.484" id="paint1_linear_1955_17326">
<stop stop-color="#07C7C2"></stop>
<stop stop-opacity="0" stop-color="#07C7C2" offset="1"></stop>
</linearGradient>
<linearGradient gradientUnits="userSpaceOnUse" y2="414.687" x2="-41.9402" y1="-1013.95" x1="428.538" id="paint2_linear_1955_17326">
<stop stop-color="#00E09E"></stop>
<stop stop-opacity="0" stop-color="#008480" offset="1"></stop>
</linearGradient>
<linearGradient gradientUnits="userSpaceOnUse" y2="1557.82" x2="200.214" y1="-82.624" x1="200.214" id="paint3_linear_1955_17326">
<stop stop-color="#00E09E"></stop>
<stop stop-opacity="0" stop-color="#008480" offset="1"></stop>
</linearGradient>
<linearGradient gradientUnits="userSpaceOnUse" y2="1557.33" x2="200.214" y1="23.9863" x1="200.214" id="paint4_linear_1955_17326">
<stop stop-color="#07C7C2"></stop>
<stop stop-opacity="0" stop-color="#07C7C2" offset="1"></stop>
</linearGradient>
<linearGradient gradientUnits="userSpaceOnUse" y2="475.735" x2="200.214" y1="-1057.61" x1="200.214" id="paint5_linear_1955_17326">
<stop stop-color="#07C7C2"></stop>
<stop stop-opacity="0" stop-color="#07C7C2" offset="1"></stop>
</linearGradient>
<linearGradient gradientUnits="userSpaceOnUse" y2="195.632" x2="200.208" y1="57.638" x1="200.208" id="paint6_linear_1955_17326">
<stop stop-color="#07C7C2"></stop>
<stop stop-opacity="0" stop-color="#07C7C2" offset="1"></stop>
</linearGradient>
<clipPath id="clip0_1955_17326">
<rect transform="translate(0 0.708008)" fill="white" height="227.708" width="400"></rect>
</clipPath>
</defs>
</svg>
